<mxfile host="app.diagrams.net" modified="2024-04-16T10:08:31.372Z" agent="Mozilla/5.0 (Windows NT 10.0; Win64; x64) AppleWebKit/537.36 (KHTML, like Gecko) Chrome/123.0.0.0 Safari/537.36" etag="M-NisNTJyj1oPDDxjwh-" version="24.2.5" type="device">
  <diagram name="Страница — 1" id="mvZ5UDo3mfNnCqDhHVoe">
    <mxGraphModel dx="3784" dy="2557" grid="1" gridSize="10" guides="1" tooltips="1" connect="1" arrows="1" fold="1" page="1" pageScale="1" pageWidth="827" pageHeight="1169" math="0" shadow="0">
      <root>
        <mxCell id="0" />
        <mxCell id="1" parent="0" />
        <mxCell id="P9Dfwppn8lKB9dP97qjI-21" style="edgeStyle=orthogonalEdgeStyle;rounded=0;orthogonalLoop=1;jettySize=auto;html=1;entryX=1;entryY=0.5;entryDx=0;entryDy=0;exitX=1;exitY=0.5;exitDx=0;exitDy=0;" parent="1" edge="1">
          <mxGeometry relative="1" as="geometry">
            <Array as="points">
              <mxPoint x="530" y="960" />
              <mxPoint x="530" y="680" />
            </Array>
            <mxPoint x="470" y="680" as="targetPoint" />
          </mxGeometry>
        </mxCell>
        <mxCell id="P9Dfwppn8lKB9dP97qjI-73" style="edgeStyle=orthogonalEdgeStyle;rounded=0;orthogonalLoop=1;jettySize=auto;html=1;entryX=1;entryY=0.5;entryDx=0;entryDy=0;exitX=1;exitY=0.5;exitDx=0;exitDy=0;" parent="1" edge="1">
          <mxGeometry relative="1" as="geometry">
            <Array as="points">
              <mxPoint x="510" y="2770" />
              <mxPoint x="510" y="2550" />
            </Array>
            <mxPoint x="474" y="2550" as="targetPoint" />
          </mxGeometry>
        </mxCell>
        <mxCell id="P9Dfwppn8lKB9dP97qjI-88" style="edgeStyle=orthogonalEdgeStyle;rounded=0;orthogonalLoop=1;jettySize=auto;html=1;entryX=1;entryY=0.5;entryDx=0;entryDy=0;" parent="1" edge="1">
          <mxGeometry relative="1" as="geometry">
            <Array as="points">
              <mxPoint x="720" y="3350" />
              <mxPoint x="720" y="3120" />
            </Array>
            <mxPoint x="480" y="3120" as="targetPoint" />
          </mxGeometry>
        </mxCell>
        <mxCell id="G22QvbjsLz7s8EWwdC2F-24" style="edgeStyle=orthogonalEdgeStyle;rounded=0;orthogonalLoop=1;jettySize=auto;html=1;entryX=0.5;entryY=0;entryDx=0;entryDy=0;" parent="1" source="G22QvbjsLz7s8EWwdC2F-25" target="G22QvbjsLz7s8EWwdC2F-27" edge="1">
          <mxGeometry relative="1" as="geometry" />
        </mxCell>
        <mxCell id="G22QvbjsLz7s8EWwdC2F-25" value="&lt;font style=&quot;font-size: 18px;&quot;&gt;Начало&lt;/font&gt;" style="ellipse;whiteSpace=wrap;html=1;" parent="1" vertex="1">
          <mxGeometry x="-775" y="380" width="120" height="80" as="geometry" />
        </mxCell>
        <mxCell id="G22QvbjsLz7s8EWwdC2F-26" style="edgeStyle=orthogonalEdgeStyle;rounded=0;orthogonalLoop=1;jettySize=auto;html=1;exitX=0.5;exitY=1;exitDx=0;exitDy=0;entryX=0.5;entryY=0;entryDx=0;entryDy=0;" parent="1" source="G22QvbjsLz7s8EWwdC2F-27" target="V1FfXwNKFsQukJ2tSS34-1" edge="1">
          <mxGeometry relative="1" as="geometry">
            <mxPoint x="-736.5000000000002" y="580" as="targetPoint" />
          </mxGeometry>
        </mxCell>
        <mxCell id="G22QvbjsLz7s8EWwdC2F-27" value="&lt;font style=&quot;font-size: 12px;&quot;&gt;Инициализация переменных: SumX, SumXX SumXY SumY SumYY&lt;br&gt;Переменные из аргументов: arrayOfX, arrayOfY n&lt;/font&gt;" style="shape=parallelogram;perimeter=parallelogramPerimeter;whiteSpace=wrap;html=1;fixedSize=1;" parent="1" vertex="1">
          <mxGeometry x="-1010" y="490" width="590" height="60" as="geometry" />
        </mxCell>
        <mxCell id="V1FfXwNKFsQukJ2tSS34-3" value="" style="edgeStyle=orthogonalEdgeStyle;rounded=0;orthogonalLoop=1;jettySize=auto;html=1;" parent="1" source="V1FfXwNKFsQukJ2tSS34-1" target="V1FfXwNKFsQukJ2tSS34-2" edge="1">
          <mxGeometry relative="1" as="geometry" />
        </mxCell>
        <mxCell id="V1FfXwNKFsQukJ2tSS34-1" value="while i &amp;lt; n; i = 0;&amp;nbsp; i++" style="shape=hexagon;perimeter=hexagonPerimeter2;whiteSpace=wrap;html=1;fixedSize=1;" parent="1" vertex="1">
          <mxGeometry x="-830" y="580" width="250" height="80" as="geometry" />
        </mxCell>
        <mxCell id="V1FfXwNKFsQukJ2tSS34-2" value="&lt;pre style=&quot;background-color:#2b2b2b;color:#a9b7c6;font-family:&#39;JetBrains Mono&#39;,monospace;font-size:9,8pt;&quot;&gt;sumX += arrayOfX.get(i)&lt;span style=&quot;color:#cc7832;&quot;&gt;;&lt;br&gt;&lt;/span&gt;sumXX += Math.&lt;span style=&quot;font-style:italic;&quot;&gt;pow&lt;/span&gt;(arrayOfX.get(i)&lt;span style=&quot;color:#cc7832;&quot;&gt;, &lt;/span&gt;&lt;span style=&quot;color:#6897bb;&quot;&gt;2&lt;/span&gt;)&lt;span style=&quot;color:#cc7832;&quot;&gt;;&lt;br&gt;&lt;/span&gt;sumY += arrayOfY.get(i)&lt;span style=&quot;color:#cc7832;&quot;&gt;;&lt;br&gt;&lt;/span&gt;sumXY += arrayOfX.get(i) *arrayOfY.get(i)&lt;span style=&quot;color:#cc7832;&quot;&gt;;&lt;br&gt;&lt;/span&gt;sumYY += arrayOfY.get(i) * arrayOfY.get(i)&lt;span style=&quot;color:#cc7832;&quot;&gt;;&lt;br&gt;&lt;/span&gt;&lt;/pre&gt;" style="shape=parallelogram;perimeter=parallelogramPerimeter;whiteSpace=wrap;html=1;fixedSize=1;" parent="1" vertex="1">
          <mxGeometry x="-882.25" y="700" width="334.5" height="120" as="geometry" />
        </mxCell>
        <mxCell id="V1FfXwNKFsQukJ2tSS34-4" value="" style="endArrow=classic;html=1;rounded=0;exitX=1;exitY=0.5;exitDx=0;exitDy=0;entryX=1;entryY=0.5;entryDx=0;entryDy=0;" parent="1" source="V1FfXwNKFsQukJ2tSS34-2" target="V1FfXwNKFsQukJ2tSS34-1" edge="1">
          <mxGeometry width="50" height="50" relative="1" as="geometry">
            <mxPoint x="-670" y="640" as="sourcePoint" />
            <mxPoint x="-620" y="590" as="targetPoint" />
            <Array as="points">
              <mxPoint x="-460" y="760" />
              <mxPoint x="-450" y="620" />
            </Array>
          </mxGeometry>
        </mxCell>
        <mxCell id="V1FfXwNKFsQukJ2tSS34-5" value="" style="endArrow=classic;html=1;rounded=0;exitX=0;exitY=0.5;exitDx=0;exitDy=0;entryX=0;entryY=0.5;entryDx=0;entryDy=0;" parent="1" source="V1FfXwNKFsQukJ2tSS34-1" target="V1FfXwNKFsQukJ2tSS34-6" edge="1">
          <mxGeometry width="50" height="50" relative="1" as="geometry">
            <mxPoint x="-670" y="640" as="sourcePoint" />
            <mxPoint x="-840" y="961.777818467882" as="targetPoint" />
            <Array as="points">
              <mxPoint x="-920" y="620" />
              <mxPoint x="-920" y="900" />
            </Array>
          </mxGeometry>
        </mxCell>
        <mxCell id="pDNr0wf4y4PxxDpwOzJw-5" value="" style="edgeStyle=orthogonalEdgeStyle;rounded=0;orthogonalLoop=1;jettySize=auto;html=1;" edge="1" parent="1" source="V1FfXwNKFsQukJ2tSS34-6" target="pDNr0wf4y4PxxDpwOzJw-4">
          <mxGeometry relative="1" as="geometry" />
        </mxCell>
        <mxCell id="V1FfXwNKFsQukJ2tSS34-6" value="&lt;pre style=&quot;background-color:#2b2b2b;color:#a9b7c6;font-family:&#39;JetBrains Mono&#39;,monospace;font-size:9,8pt;&quot;&gt;&lt;span style=&quot;color:#9876aa;&quot;&gt;a &lt;/span&gt;= (sumXY*n - sumX*sumY)/(sumXX*n - sumX*sumX)&lt;span style=&quot;color:#cc7832;&quot;&gt;;&lt;br&gt;&lt;/span&gt;&lt;span style=&quot;color:#9876aa;&quot;&gt;b &lt;/span&gt;= (sumXX*sumY - sumX*sumXY)/(sumXX*n - sumX*sumX)&lt;span style=&quot;color:#cc7832;&quot;&gt;;&lt;br&gt;&lt;/span&gt;&lt;/pre&gt;" style="shape=parallelogram;perimeter=parallelogramPerimeter;whiteSpace=wrap;html=1;fixedSize=1;" parent="1" vertex="1">
          <mxGeometry x="-890" y="870" width="390" height="60" as="geometry" />
        </mxCell>
        <mxCell id="V1FfXwNKFsQukJ2tSS34-7" style="edgeStyle=orthogonalEdgeStyle;rounded=0;orthogonalLoop=1;jettySize=auto;html=1;entryX=0.5;entryY=0;entryDx=0;entryDy=0;" parent="1" source="V1FfXwNKFsQukJ2tSS34-8" target="V1FfXwNKFsQukJ2tSS34-10" edge="1">
          <mxGeometry relative="1" as="geometry" />
        </mxCell>
        <mxCell id="V1FfXwNKFsQukJ2tSS34-8" value="&lt;font style=&quot;font-size: 18px;&quot;&gt;Начало&lt;/font&gt;" style="ellipse;whiteSpace=wrap;html=1;" parent="1" vertex="1">
          <mxGeometry x="-810" y="-610" width="120" height="70" as="geometry" />
        </mxCell>
        <mxCell id="V1FfXwNKFsQukJ2tSS34-9" style="edgeStyle=orthogonalEdgeStyle;rounded=0;orthogonalLoop=1;jettySize=auto;html=1;exitX=0.5;exitY=1;exitDx=0;exitDy=0;entryX=0.5;entryY=0;entryDx=0;entryDy=0;" parent="1" source="V1FfXwNKFsQukJ2tSS34-10" target="V1FfXwNKFsQukJ2tSS34-13" edge="1">
          <mxGeometry relative="1" as="geometry">
            <mxPoint x="-766.5000000000002" y="-420" as="targetPoint" />
          </mxGeometry>
        </mxCell>
        <mxCell id="V1FfXwNKFsQukJ2tSS34-10" value="Определение параметров функции таких как: S, sko, R^2&lt;div&gt;phiAvg = 0&lt;/div&gt;" style="shape=parallelogram;perimeter=parallelogramPerimeter;whiteSpace=wrap;html=1;fixedSize=1;" parent="1" vertex="1">
          <mxGeometry x="-1040" y="-510" width="590" height="60" as="geometry" />
        </mxCell>
        <mxCell id="V1FfXwNKFsQukJ2tSS34-11" value="Общий метод для нахождения парамметров" style="rounded=0;whiteSpace=wrap;html=1;" parent="1" vertex="1">
          <mxGeometry x="-814.5" y="-720" width="134.5" height="60" as="geometry" />
        </mxCell>
        <mxCell id="V1FfXwNKFsQukJ2tSS34-12" value="" style="edgeStyle=orthogonalEdgeStyle;rounded=0;orthogonalLoop=1;jettySize=auto;html=1;" parent="1" source="V1FfXwNKFsQukJ2tSS34-13" target="V1FfXwNKFsQukJ2tSS34-14" edge="1">
          <mxGeometry relative="1" as="geometry" />
        </mxCell>
        <mxCell id="V1FfXwNKFsQukJ2tSS34-13" value="while i &amp;lt; n; i = 0;&amp;nbsp; i++" style="shape=hexagon;perimeter=hexagonPerimeter2;whiteSpace=wrap;html=1;fixedSize=1;" parent="1" vertex="1">
          <mxGeometry x="-860" y="-420" width="250" height="80" as="geometry" />
        </mxCell>
        <mxCell id="V1FfXwNKFsQukJ2tSS34-22" value="" style="edgeStyle=orthogonalEdgeStyle;rounded=0;orthogonalLoop=1;jettySize=auto;html=1;" parent="1" source="V1FfXwNKFsQukJ2tSS34-14" target="V1FfXwNKFsQukJ2tSS34-21" edge="1">
          <mxGeometry relative="1" as="geometry" />
        </mxCell>
        <mxCell id="V1FfXwNKFsQukJ2tSS34-14" value="fi = f(xi)&lt;div&gt;eps = fi - yi&lt;/div&gt;" style="shape=parallelogram;perimeter=parallelogramPerimeter;whiteSpace=wrap;html=1;fixedSize=1;" parent="1" vertex="1">
          <mxGeometry x="-830" y="-320" width="202.25" height="40" as="geometry" />
        </mxCell>
        <mxCell id="V1FfXwNKFsQukJ2tSS34-15" value="" style="endArrow=classic;html=1;rounded=0;entryX=1;entryY=0.5;entryDx=0;entryDy=0;exitX=1;exitY=0.5;exitDx=0;exitDy=0;" parent="1" source="V1FfXwNKFsQukJ2tSS34-21" target="V1FfXwNKFsQukJ2tSS34-13" edge="1">
          <mxGeometry width="50" height="50" relative="1" as="geometry">
            <mxPoint x="-580" y="-140" as="sourcePoint" />
            <mxPoint x="-650" y="-410" as="targetPoint" />
            <Array as="points">
              <mxPoint x="-490" y="-240" />
              <mxPoint x="-480" y="-380" />
            </Array>
          </mxGeometry>
        </mxCell>
        <mxCell id="V1FfXwNKFsQukJ2tSS34-16" value="" style="endArrow=classic;html=1;rounded=0;exitX=0;exitY=0.5;exitDx=0;exitDy=0;entryX=0;entryY=0.5;entryDx=0;entryDy=0;" parent="1" source="V1FfXwNKFsQukJ2tSS34-13" target="V1FfXwNKFsQukJ2tSS34-17" edge="1">
          <mxGeometry width="50" height="50" relative="1" as="geometry">
            <mxPoint x="-700" y="-360" as="sourcePoint" />
            <mxPoint x="-870" y="-38.22218153211804" as="targetPoint" />
            <Array as="points">
              <mxPoint x="-950" y="-380" />
              <mxPoint x="-950" y="-160" />
            </Array>
          </mxGeometry>
        </mxCell>
        <mxCell id="V1FfXwNKFsQukJ2tSS34-24" value="" style="edgeStyle=orthogonalEdgeStyle;rounded=0;orthogonalLoop=1;jettySize=auto;html=1;entryX=0.5;entryY=0;entryDx=0;entryDy=0;" parent="1" source="V1FfXwNKFsQukJ2tSS34-17" target="V1FfXwNKFsQukJ2tSS34-26" edge="1">
          <mxGeometry relative="1" as="geometry">
            <mxPoint x="-725.8" y="-100" as="targetPoint" />
          </mxGeometry>
        </mxCell>
        <mxCell id="V1FfXwNKFsQukJ2tSS34-17" value="&lt;font color=&quot;#9876aa&quot;&gt;sko&amp;nbsp; = sqrt(s/n)&lt;/font&gt;&lt;div&gt;&lt;font color=&quot;#9876aa&quot;&gt;phiAvg = phiAvg^2&lt;/font&gt;&lt;/div&gt;" style="shape=parallelogram;perimeter=parallelogramPerimeter;whiteSpace=wrap;html=1;fixedSize=1;" parent="1" vertex="1">
          <mxGeometry x="-923.87" y="-190" width="390" height="60" as="geometry" />
        </mxCell>
        <mxCell id="V1FfXwNKFsQukJ2tSS34-19" value="" style="shape=stencil(fZbdcgIhDIWfZm8zQAg/17Z9j85U606tdqz9e/tmZ0c0uJ47xP0I5JwEBl59bp8/1kNwn6fj4W39M76ctgM/DCGM++36OJ50NPDjwKvN4bh+PR6+9i/z74/n6ctp9H74nlb4nbmSKZeJCu5vngmZ6jzzNAO7cX8FVKEsBuBKrgKg9oAE8gkCbLeUhEoEQKSUDZDLeWYRKIl8MEDRmHwfyBrBG6Amyu4+kDxxMoB3jhwgYu7TVAsVkFcWCs4CTBEoF4RctKeOxHIf8IXYpikHikAIf+MNUW94AGSSaoAoFIE3AlOyeWU+p2E5S9yfQZcQILVuQOwZdJNoS9Ls3wA5u2XZTIHECqeJ9kDpSaauRiNVcAY1QhdBzeLBli5WazpkSsBLV25uRaqWRyFawTQzRRIQYirJzq5atkBqLfouwqUxLBepthWb10vrWZY6UOAeyKCCtDV625mm9gmUC4Wc3VLJMMIE1BsA2FW9JraVlQB7n3c9oMKhCLEvIM1zBPZ25/umNQ1tVEC2G+fFCC8g398O2hNQuQlVu752DBfA+q0ptnqO5JFmeuIuo9DY7KjY71UxdJV4EntifPWorW++R/dC4t7V3DlIB5cHx2bc7eb3yvX//QNFp+bHDT/+Aw==);lineShape=1;strokeColor=default;" parent="1" vertex="1">
          <mxGeometry x="-705.9320879856491" y="-312.32473026609" width="4.672539772115215" height="4.665236216357243" as="geometry" />
        </mxCell>
        <mxCell id="V1FfXwNKFsQukJ2tSS34-21" value="phiAvg += fi&lt;div&gt;S += eps ^ 2&lt;/div&gt;" style="shape=parallelogram;perimeter=parallelogramPerimeter;whiteSpace=wrap;html=1;fixedSize=1;" parent="1" vertex="1">
          <mxGeometry x="-836.12" y="-260" width="202.25" height="40" as="geometry" />
        </mxCell>
        <mxCell id="V1FfXwNKFsQukJ2tSS34-25" value="" style="edgeStyle=orthogonalEdgeStyle;rounded=0;orthogonalLoop=1;jettySize=auto;html=1;" parent="1" source="V1FfXwNKFsQukJ2tSS34-26" target="V1FfXwNKFsQukJ2tSS34-28" edge="1">
          <mxGeometry relative="1" as="geometry" />
        </mxCell>
        <mxCell id="V1FfXwNKFsQukJ2tSS34-26" value="while i &amp;lt; n; i = 0;&amp;nbsp; i++" style="shape=hexagon;perimeter=hexagonPerimeter2;whiteSpace=wrap;html=1;fixedSize=1;" parent="1" vertex="1">
          <mxGeometry x="-860" y="-100" width="250" height="80" as="geometry" />
        </mxCell>
        <mxCell id="V1FfXwNKFsQukJ2tSS34-27" value="" style="edgeStyle=orthogonalEdgeStyle;rounded=0;orthogonalLoop=1;jettySize=auto;html=1;entryX=0.5;entryY=0;entryDx=0;entryDy=0;" parent="1" source="V1FfXwNKFsQukJ2tSS34-28" target="pDNr0wf4y4PxxDpwOzJw-1" edge="1">
          <mxGeometry relative="1" as="geometry">
            <mxPoint x="-734.9333333333334" y="60" as="targetPoint" />
            <Array as="points">
              <mxPoint x="-729" y="50" />
              <mxPoint x="-735" y="50" />
              <mxPoint x="-735" y="70" />
            </Array>
          </mxGeometry>
        </mxCell>
        <mxCell id="V1FfXwNKFsQukJ2tSS34-28" value="fi&amp;nbsp; = f(xi)&lt;div&gt;down +=&amp;nbsp; (yi - phiAvg)^2&lt;br&gt;&lt;/div&gt;" style="shape=parallelogram;perimeter=parallelogramPerimeter;whiteSpace=wrap;html=1;fixedSize=1;" parent="1" vertex="1">
          <mxGeometry x="-830" width="202.25" height="40" as="geometry" />
        </mxCell>
        <mxCell id="V1FfXwNKFsQukJ2tSS34-29" value="" style="endArrow=classic;html=1;rounded=0;entryX=1;entryY=0.5;entryDx=0;entryDy=0;exitX=1;exitY=0.5;exitDx=0;exitDy=0;" parent="1" target="V1FfXwNKFsQukJ2tSS34-26" edge="1">
          <mxGeometry width="50" height="50" relative="1" as="geometry">
            <mxPoint x="-643.8800000000001" y="90" as="sourcePoint" />
            <mxPoint x="-650" y="-90" as="targetPoint" />
            <Array as="points">
              <mxPoint x="-490" y="80" />
              <mxPoint x="-480" y="-60" />
            </Array>
          </mxGeometry>
        </mxCell>
        <mxCell id="V1FfXwNKFsQukJ2tSS34-30" value="" style="endArrow=classic;html=1;rounded=0;exitX=0;exitY=0.5;exitDx=0;exitDy=0;entryX=0;entryY=0.5;entryDx=0;entryDy=0;" parent="1" source="V1FfXwNKFsQukJ2tSS34-26" target="V1FfXwNKFsQukJ2tSS34-31" edge="1">
          <mxGeometry width="50" height="50" relative="1" as="geometry">
            <mxPoint x="-700" y="-40" as="sourcePoint" />
            <mxPoint x="-870" y="281.77781846788196" as="targetPoint" />
            <Array as="points">
              <mxPoint x="-950" y="-60" />
              <mxPoint x="-950" y="160" />
            </Array>
          </mxGeometry>
        </mxCell>
        <mxCell id="pDNr0wf4y4PxxDpwOzJw-3" value="" style="edgeStyle=orthogonalEdgeStyle;rounded=0;orthogonalLoop=1;jettySize=auto;html=1;" edge="1" parent="1" source="V1FfXwNKFsQukJ2tSS34-31" target="pDNr0wf4y4PxxDpwOzJw-2">
          <mxGeometry relative="1" as="geometry" />
        </mxCell>
        <mxCell id="V1FfXwNKFsQukJ2tSS34-31" value="&lt;font color=&quot;#9876aa&quot;&gt;determ 1 - (up/down)&lt;/font&gt;" style="shape=parallelogram;perimeter=parallelogramPerimeter;whiteSpace=wrap;html=1;fixedSize=1;" parent="1" vertex="1">
          <mxGeometry x="-923.87" y="130" width="390" height="60" as="geometry" />
        </mxCell>
        <mxCell id="V1FfXwNKFsQukJ2tSS34-32" value="" style="shape=stencil(fZbdcgIhDIWfZm8zQAg/17Z9j85U606tdqz9e/tmZ0c0uJ47xP0I5JwEBl59bp8/1kNwn6fj4W39M76ctgM/DCGM++36OJ50NPDjwKvN4bh+PR6+9i/z74/n6ctp9H74nlb4nbmSKZeJCu5vngmZ6jzzNAO7cX8FVKEsBuBKrgKg9oAE8gkCbLeUhEoEQKSUDZDLeWYRKIl8MEDRmHwfyBrBG6Amyu4+kDxxMoB3jhwgYu7TVAsVkFcWCs4CTBEoF4RctKeOxHIf8IXYpikHikAIf+MNUW94AGSSaoAoFIE3AlOyeWU+p2E5S9yfQZcQILVuQOwZdJNoS9Ls3wA5u2XZTIHECqeJ9kDpSaauRiNVcAY1QhdBzeLBli5WazpkSsBLV25uRaqWRyFawTQzRRIQYirJzq5atkBqLfouwqUxLBepthWb10vrWZY6UOAeyKCCtDV625mm9gmUC4Wc3VLJMMIE1BsA2FW9JraVlQB7n3c9oMKhCLEvIM1zBPZ25/umNQ1tVEC2G+fFCC8g398O2hNQuQlVu752DBfA+q0ptnqO5JFmeuIuo9DY7KjY71UxdJV4EntifPWorW++R/dC4t7V3DlIB5cHx2bc7eb3yvX//QNFp+bHDT/+Aw==);lineShape=1;strokeColor=default;" parent="1" vertex="1">
          <mxGeometry x="-705.9320879856491" y="7.67526973391" width="4.672539772115215" height="4.665236216357243" as="geometry" />
        </mxCell>
        <mxCell id="pDNr0wf4y4PxxDpwOzJw-1" value="&lt;div&gt;down +=&amp;nbsp; (yi - phiAvg)^2&lt;/div&gt;&lt;div&gt;&lt;span style=&quot;background-color: initial;&quot;&gt;up +=&amp;nbsp; (yi - fi)^2&lt;/span&gt;&lt;br&gt;&lt;/div&gt;&lt;div&gt;&lt;span style=&quot;color: rgba(0, 0, 0, 0); font-family: monospace; font-size: 0px; text-align: start; text-wrap: nowrap;&quot;&gt;%3CmxGraphModel%3E%3Croot%3E%3CmxCell%20id%3D%220%22%2F%3E%3CmxCell%20id%3D%221%22%20parent%3D%220%22%2F%3E%3CmxCell%20id%3D%222%22%20value%3D%22fi%26amp%3Bnbsp%3B%20%3D%20f(xi)%26lt%3Bdiv%26gt%3Bdown%20%2B%3D%26amp%3Bnbsp%3B%20(yi%20-%20phiAvg)%5E2%26lt%3Bbr%26gt%3B%26lt%3B%2Fdiv%26gt%3B%22%20style%3D%22shape%3Dparallelogram%3Bperimeter%3DparallelogramPerimeter%3BwhiteSpace%3Dwrap%3Bhtml%3D1%3BfixedSize%3D1%3B%22%20vertex%3D%221%22%20parent%3D%221%22%3E%3CmxGeometry%20x%3D%22-830%22%20width%3D%22202.25%22%20height%3D%2240%22%20as%3D%22geometry%22%2F%3E%3C%2FmxCell%3E%3C%2Froot%3E%3C%2FmxGraphModel%3E&lt;/span&gt;&lt;br&gt;&lt;/div&gt;" style="shape=parallelogram;perimeter=parallelogramPerimeter;whiteSpace=wrap;html=1;fixedSize=1;" vertex="1" parent="1">
          <mxGeometry x="-830" y="70" width="202.25" height="40" as="geometry" />
        </mxCell>
        <mxCell id="pDNr0wf4y4PxxDpwOzJw-2" value="&lt;span style=&quot;font-size: 18px;&quot;&gt;конец&lt;/span&gt;" style="ellipse;whiteSpace=wrap;html=1;" vertex="1" parent="1">
          <mxGeometry x="-473" y="120" width="120" height="80" as="geometry" />
        </mxCell>
        <mxCell id="pDNr0wf4y4PxxDpwOzJw-4" value="&lt;span style=&quot;font-size: 18px;&quot;&gt;Вызов общего методы для определения спец параметров&lt;/span&gt;" style="ellipse;whiteSpace=wrap;html=1;" vertex="1" parent="1">
          <mxGeometry x="-787.5" y="970" width="185" height="140" as="geometry" />
        </mxCell>
        <mxCell id="pDNr0wf4y4PxxDpwOzJw-6" value="Линейный метод" style="rounded=0;whiteSpace=wrap;html=1;" vertex="1" parent="1">
          <mxGeometry x="-782.25" y="300" width="134.5" height="60" as="geometry" />
        </mxCell>
        <mxCell id="pDNr0wf4y4PxxDpwOzJw-7" style="edgeStyle=orthogonalEdgeStyle;rounded=0;orthogonalLoop=1;jettySize=auto;html=1;entryX=0.5;entryY=0;entryDx=0;entryDy=0;" edge="1" parent="1" source="pDNr0wf4y4PxxDpwOzJw-8" target="pDNr0wf4y4PxxDpwOzJw-10">
          <mxGeometry relative="1" as="geometry" />
        </mxCell>
        <mxCell id="pDNr0wf4y4PxxDpwOzJw-8" value="&lt;font style=&quot;font-size: 18px;&quot;&gt;Начало&lt;/font&gt;" style="ellipse;whiteSpace=wrap;html=1;" vertex="1" parent="1">
          <mxGeometry x="-1435" y="380" width="120" height="80" as="geometry" />
        </mxCell>
        <mxCell id="pDNr0wf4y4PxxDpwOzJw-9" style="edgeStyle=orthogonalEdgeStyle;rounded=0;orthogonalLoop=1;jettySize=auto;html=1;exitX=0.5;exitY=1;exitDx=0;exitDy=0;entryX=0.5;entryY=0;entryDx=0;entryDy=0;" edge="1" parent="1" source="pDNr0wf4y4PxxDpwOzJw-10" target="pDNr0wf4y4PxxDpwOzJw-12">
          <mxGeometry relative="1" as="geometry">
            <mxPoint x="-1396.5000000000002" y="580" as="targetPoint" />
          </mxGeometry>
        </mxCell>
        <mxCell id="pDNr0wf4y4PxxDpwOzJw-10" value="&lt;font style=&quot;font-size: 12px;&quot;&gt;Инициализация переменных: terms[], matrixData[][], vector[]&lt;br&gt;Переменные из аргументов: arrayOfX, arrayOfY n&lt;/font&gt;" style="shape=parallelogram;perimeter=parallelogramPerimeter;whiteSpace=wrap;html=1;fixedSize=1;" vertex="1" parent="1">
          <mxGeometry x="-1670" y="490" width="590" height="60" as="geometry" />
        </mxCell>
        <mxCell id="pDNr0wf4y4PxxDpwOzJw-11" value="" style="edgeStyle=orthogonalEdgeStyle;rounded=0;orthogonalLoop=1;jettySize=auto;html=1;" edge="1" parent="1" source="pDNr0wf4y4PxxDpwOzJw-12" target="pDNr0wf4y4PxxDpwOzJw-13">
          <mxGeometry relative="1" as="geometry" />
        </mxCell>
        <mxCell id="pDNr0wf4y4PxxDpwOzJw-12" value="while i &amp;lt; n; i = 0;&amp;nbsp; i++" style="shape=hexagon;perimeter=hexagonPerimeter2;whiteSpace=wrap;html=1;fixedSize=1;" vertex="1" parent="1">
          <mxGeometry x="-1490" y="580" width="250" height="80" as="geometry" />
        </mxCell>
        <mxCell id="pDNr0wf4y4PxxDpwOzJw-13" value="&lt;div&gt;terms[0] += Math.pow(x, 4);&lt;/div&gt;&lt;div&gt;&amp;nbsp; terms[1] += Math.pow(x, 3);&lt;/div&gt;&lt;div&gt;&amp;nbsp; &amp;nbsp;terms[2] += Math.pow(x, 2);&lt;/div&gt;&lt;div&gt;&lt;br&gt;&lt;/div&gt;&lt;div&gt;&amp;nbsp; &amp;nbsp; &amp;nbsp; &amp;nbsp; &amp;nbsp; &amp;nbsp; matrixData[0][0] += Math.pow(x, 4);&lt;/div&gt;&lt;div&gt;&amp;nbsp; &amp;nbsp; &amp;nbsp; &amp;nbsp; &amp;nbsp; &amp;nbsp; matrixData[0][1] += Math.pow(x, 3);&lt;/div&gt;&lt;div&gt;&amp;nbsp; &amp;nbsp; &amp;nbsp; &amp;nbsp; &amp;nbsp; &amp;nbsp; matrixData[0][2] += Math.pow(x, 2);&lt;/div&gt;&lt;div&gt;&amp;nbsp; &amp;nbsp; &amp;nbsp; &amp;nbsp; &amp;nbsp; &amp;nbsp; matrixData[1][0] += Math.pow(x, 3);&lt;/div&gt;&lt;div&gt;&amp;nbsp; &amp;nbsp; &amp;nbsp; &amp;nbsp; &amp;nbsp; &amp;nbsp; matrixData[1][1] += Math.pow(x, 2);&lt;/div&gt;&lt;div&gt;&lt;span style=&quot;background-color: initial;&quot;&gt;matrixData[1][2] += x;&lt;/span&gt;&lt;/div&gt;&lt;div&gt;&amp;nbsp; &amp;nbsp; &amp;nbsp; &amp;nbsp; &amp;nbsp; &amp;nbsp; matrixData[2][0] += Math.pow(x, 2);&lt;/div&gt;&lt;div&gt;&amp;nbsp; &amp;nbsp; &amp;nbsp; &amp;nbsp; &amp;nbsp; &amp;nbsp; matrixData[2][1] += x;&lt;/div&gt;&lt;div&gt;&amp;nbsp; &amp;nbsp; &amp;nbsp; &amp;nbsp; &amp;nbsp; &amp;nbsp; matrixData[2][2] += 1;&lt;/div&gt;&lt;div&gt;&lt;br&gt;&lt;/div&gt;&lt;div&gt;&amp;nbsp; &amp;nbsp; &amp;nbsp; &amp;nbsp; &amp;nbsp; &amp;nbsp; vector[0] += x * x * y;&lt;/div&gt;&lt;div&gt;&amp;nbsp; &amp;nbsp; &amp;nbsp; &amp;nbsp; &amp;nbsp; &amp;nbsp; vector[1] += x * y;&lt;/div&gt;&lt;div&gt;&amp;nbsp; &amp;nbsp; &amp;nbsp; &amp;nbsp; &amp;nbsp; &amp;nbsp; vector[2] += y;&lt;/div&gt;" style="shape=parallelogram;perimeter=parallelogramPerimeter;whiteSpace=wrap;html=1;fixedSize=1;" vertex="1" parent="1">
          <mxGeometry x="-1542.25" y="700" width="334.5" height="310" as="geometry" />
        </mxCell>
        <mxCell id="pDNr0wf4y4PxxDpwOzJw-14" value="" style="endArrow=classic;html=1;rounded=0;exitX=1;exitY=0.5;exitDx=0;exitDy=0;entryX=1;entryY=0.5;entryDx=0;entryDy=0;" edge="1" parent="1" source="pDNr0wf4y4PxxDpwOzJw-13" target="pDNr0wf4y4PxxDpwOzJw-12">
          <mxGeometry width="50" height="50" relative="1" as="geometry">
            <mxPoint x="-1330" y="640" as="sourcePoint" />
            <mxPoint x="-1280" y="590" as="targetPoint" />
            <Array as="points">
              <mxPoint x="-1120" y="860" />
              <mxPoint x="-1110" y="620" />
            </Array>
          </mxGeometry>
        </mxCell>
        <mxCell id="pDNr0wf4y4PxxDpwOzJw-15" value="" style="endArrow=classic;html=1;rounded=0;exitX=0;exitY=0.5;exitDx=0;exitDy=0;entryX=0;entryY=0.5;entryDx=0;entryDy=0;" edge="1" parent="1" source="pDNr0wf4y4PxxDpwOzJw-12" target="pDNr0wf4y4PxxDpwOzJw-17">
          <mxGeometry width="50" height="50" relative="1" as="geometry">
            <mxPoint x="-1330" y="640" as="sourcePoint" />
            <mxPoint x="-1500" y="961.777818467882" as="targetPoint" />
            <Array as="points">
              <mxPoint x="-1580" y="620" />
              <mxPoint x="-1580" y="900" />
              <mxPoint x="-1580" y="1090" />
            </Array>
          </mxGeometry>
        </mxCell>
        <mxCell id="pDNr0wf4y4PxxDpwOzJw-16" value="" style="edgeStyle=orthogonalEdgeStyle;rounded=0;orthogonalLoop=1;jettySize=auto;html=1;" edge="1" parent="1" source="pDNr0wf4y4PxxDpwOzJw-17" target="pDNr0wf4y4PxxDpwOzJw-18">
          <mxGeometry relative="1" as="geometry" />
        </mxCell>
        <mxCell id="pDNr0wf4y4PxxDpwOzJw-17" value="&lt;div&gt;&amp;nbsp;RealMatrix coefficients = new Array2DRowRealMatrix(matrixData, false);&lt;/div&gt;&lt;div&gt;&amp;nbsp; &amp;nbsp; &amp;nbsp; &amp;nbsp; DecompositionSolver solver = new LUDecomposition(coefficients).getSolver();&lt;/div&gt;&lt;div&gt;&lt;br&gt;&lt;/div&gt;&lt;div&gt;&amp;nbsp; &amp;nbsp; &amp;nbsp; &amp;nbsp; RealVector constants = new ArrayRealVector(vector, false);&lt;/div&gt;&lt;div&gt;&amp;nbsp; &amp;nbsp; &amp;nbsp; &amp;nbsp; RealVector solution = solver.solve(constants);&lt;/div&gt;&lt;div&gt;&lt;br&gt;&lt;/div&gt;&lt;div&gt;&amp;nbsp; &amp;nbsp; &amp;nbsp; &amp;nbsp; a = solution.getEntry(0);&lt;/div&gt;&lt;div&gt;&amp;nbsp; &amp;nbsp; &amp;nbsp; &amp;nbsp; b = solution.getEntry(1);&lt;/div&gt;&lt;div&gt;&amp;nbsp; &amp;nbsp; &amp;nbsp; &amp;nbsp; c = solution.getEntry(2);&lt;/div&gt;&lt;div&gt;&amp;nbsp; &amp;nbsp; &amp;nbsp;&lt;/div&gt;" style="shape=parallelogram;perimeter=parallelogramPerimeter;whiteSpace=wrap;html=1;fixedSize=1;" vertex="1" parent="1">
          <mxGeometry x="-1544.75" y="1040" width="454.75" height="160" as="geometry" />
        </mxCell>
        <mxCell id="pDNr0wf4y4PxxDpwOzJw-18" value="&lt;span style=&quot;font-size: 18px;&quot;&gt;Вызов общего методы для определения спец параметров&lt;/span&gt;" style="ellipse;whiteSpace=wrap;html=1;" vertex="1" parent="1">
          <mxGeometry x="-1442.25" y="1290" width="185" height="140" as="geometry" />
        </mxCell>
        <mxCell id="pDNr0wf4y4PxxDpwOzJw-19" value="Квадратическая" style="rounded=0;whiteSpace=wrap;html=1;" vertex="1" parent="1">
          <mxGeometry x="-1442.25" y="300" width="134.5" height="60" as="geometry" />
        </mxCell>
        <mxCell id="pDNr0wf4y4PxxDpwOzJw-20" style="edgeStyle=orthogonalEdgeStyle;rounded=0;orthogonalLoop=1;jettySize=auto;html=1;entryX=0.5;entryY=0;entryDx=0;entryDy=0;" edge="1" parent="1" source="pDNr0wf4y4PxxDpwOzJw-21" target="pDNr0wf4y4PxxDpwOzJw-23">
          <mxGeometry relative="1" as="geometry" />
        </mxCell>
        <mxCell id="pDNr0wf4y4PxxDpwOzJw-21" value="&lt;font style=&quot;font-size: 18px;&quot;&gt;Начало&lt;/font&gt;" style="ellipse;whiteSpace=wrap;html=1;" vertex="1" parent="1">
          <mxGeometry x="-85" y="380" width="120" height="80" as="geometry" />
        </mxCell>
        <mxCell id="pDNr0wf4y4PxxDpwOzJw-22" style="edgeStyle=orthogonalEdgeStyle;rounded=0;orthogonalLoop=1;jettySize=auto;html=1;exitX=0.5;exitY=1;exitDx=0;exitDy=0;entryX=0.5;entryY=0;entryDx=0;entryDy=0;" edge="1" parent="1" source="pDNr0wf4y4PxxDpwOzJw-23" target="pDNr0wf4y4PxxDpwOzJw-25">
          <mxGeometry relative="1" as="geometry">
            <mxPoint x="-46.50000000000023" y="580" as="targetPoint" />
          </mxGeometry>
        </mxCell>
        <mxCell id="pDNr0wf4y4PxxDpwOzJw-23" value="&lt;font style=&quot;font-size: 12px;&quot;&gt;Инициализация переменных: SumX, SumXX SumXY SumY SumYY&lt;br&gt;Переменные из аргументов: arrayOfX, arrayOfY n&lt;/font&gt;" style="shape=parallelogram;perimeter=parallelogramPerimeter;whiteSpace=wrap;html=1;fixedSize=1;" vertex="1" parent="1">
          <mxGeometry x="-320" y="490" width="590" height="60" as="geometry" />
        </mxCell>
        <mxCell id="pDNr0wf4y4PxxDpwOzJw-24" value="" style="edgeStyle=orthogonalEdgeStyle;rounded=0;orthogonalLoop=1;jettySize=auto;html=1;" edge="1" parent="1" source="pDNr0wf4y4PxxDpwOzJw-25" target="pDNr0wf4y4PxxDpwOzJw-26">
          <mxGeometry relative="1" as="geometry" />
        </mxCell>
        <mxCell id="pDNr0wf4y4PxxDpwOzJw-25" value="while i &amp;lt; n; i = 0;&amp;nbsp; i++" style="shape=hexagon;perimeter=hexagonPerimeter2;whiteSpace=wrap;html=1;fixedSize=1;" vertex="1" parent="1">
          <mxGeometry x="-140" y="580" width="230" height="80" as="geometry" />
        </mxCell>
        <mxCell id="pDNr0wf4y4PxxDpwOzJw-26" value="&lt;pre style=&quot;background-color:#2b2b2b;color:#a9b7c6;font-family:&#39;JetBrains Mono&#39;,monospace;font-size:9,8pt;&quot;&gt;sumX += arrayOfX.get(i)&lt;span style=&quot;color:#cc7832;&quot;&gt;;&lt;br&gt;&lt;/span&gt;sumXX += Math.&lt;span style=&quot;font-style:italic;&quot;&gt;pow&lt;/span&gt;(arrayOfX.get(i)&lt;span style=&quot;color:#cc7832;&quot;&gt;, &lt;/span&gt;&lt;span style=&quot;color:#6897bb;&quot;&gt;2&lt;/span&gt;)&lt;span style=&quot;color:#cc7832;&quot;&gt;;&lt;br&gt;&lt;/span&gt;sumY += arrayOfY.get(i)&lt;span style=&quot;color:#cc7832;&quot;&gt;;&lt;br&gt;&lt;/span&gt;sumXY += arrayOfX.get(i) *arrayOfY.get(i)&lt;span style=&quot;color:#cc7832;&quot;&gt;;&lt;br&gt;&lt;/span&gt;sumYY += arrayOfY.get(i) * arrayOfY.get(i)&lt;span style=&quot;color:#cc7832;&quot;&gt;;&lt;br&gt;&lt;/span&gt;&lt;/pre&gt;" style="shape=parallelogram;perimeter=parallelogramPerimeter;whiteSpace=wrap;html=1;fixedSize=1;" vertex="1" parent="1">
          <mxGeometry x="-192.25" y="700" width="334.5" height="120" as="geometry" />
        </mxCell>
        <mxCell id="pDNr0wf4y4PxxDpwOzJw-27" value="" style="endArrow=classic;html=1;rounded=0;exitX=1;exitY=0.5;exitDx=0;exitDy=0;entryX=1;entryY=0.5;entryDx=0;entryDy=0;" edge="1" parent="1" source="pDNr0wf4y4PxxDpwOzJw-26" target="pDNr0wf4y4PxxDpwOzJw-25">
          <mxGeometry width="50" height="50" relative="1" as="geometry">
            <mxPoint x="20" y="640" as="sourcePoint" />
            <mxPoint x="70" y="590" as="targetPoint" />
            <Array as="points">
              <mxPoint x="230" y="760" />
              <mxPoint x="240" y="620" />
            </Array>
          </mxGeometry>
        </mxCell>
        <mxCell id="pDNr0wf4y4PxxDpwOzJw-28" value="" style="endArrow=classic;html=1;rounded=0;exitX=0;exitY=0.5;exitDx=0;exitDy=0;entryX=0;entryY=0.5;entryDx=0;entryDy=0;" edge="1" parent="1" source="pDNr0wf4y4PxxDpwOzJw-25" target="pDNr0wf4y4PxxDpwOzJw-30">
          <mxGeometry width="50" height="50" relative="1" as="geometry">
            <mxPoint x="20" y="640" as="sourcePoint" />
            <mxPoint x="-150" y="961.777818467882" as="targetPoint" />
            <Array as="points">
              <mxPoint x="-230" y="620" />
              <mxPoint x="-230" y="900" />
            </Array>
          </mxGeometry>
        </mxCell>
        <mxCell id="pDNr0wf4y4PxxDpwOzJw-29" value="" style="edgeStyle=orthogonalEdgeStyle;rounded=0;orthogonalLoop=1;jettySize=auto;html=1;" edge="1" parent="1" source="pDNr0wf4y4PxxDpwOzJw-30" target="pDNr0wf4y4PxxDpwOzJw-31">
          <mxGeometry relative="1" as="geometry" />
        </mxCell>
        <mxCell id="pDNr0wf4y4PxxDpwOzJw-30" value="&lt;pre style=&quot;background-color:#2b2b2b;color:#a9b7c6;font-family:&#39;JetBrains Mono&#39;,monospace;font-size:9,8pt;&quot;&gt;&lt;span style=&quot;color:#9876aa;&quot;&gt;a &lt;/span&gt;= (sumXY*n - sumX*sumY)/(sumXX*n - sumX*sumX)&lt;span style=&quot;color:#cc7832;&quot;&gt;;&lt;br&gt;&lt;/span&gt;&lt;span style=&quot;color:#9876aa;&quot;&gt;b &lt;/span&gt;= (sumXX*sumY - sumX*sumXY)/(sumXX*n - sumX*sumX)&lt;span style=&quot;color:#cc7832;&quot;&gt;;&lt;br&gt;&lt;/span&gt;&lt;/pre&gt;" style="shape=parallelogram;perimeter=parallelogramPerimeter;whiteSpace=wrap;html=1;fixedSize=1;" vertex="1" parent="1">
          <mxGeometry x="-200" y="870" width="390" height="60" as="geometry" />
        </mxCell>
        <mxCell id="pDNr0wf4y4PxxDpwOzJw-31" value="&lt;span style=&quot;font-size: 18px;&quot;&gt;Вызов общего методы для определения спец параметров&lt;/span&gt;" style="ellipse;whiteSpace=wrap;html=1;" vertex="1" parent="1">
          <mxGeometry x="-97.5" y="970" width="185" height="140" as="geometry" />
        </mxCell>
        <mxCell id="pDNr0wf4y4PxxDpwOzJw-32" value="Линейный метод" style="rounded=0;whiteSpace=wrap;html=1;" vertex="1" parent="1">
          <mxGeometry x="-92.25" y="300" width="134.5" height="60" as="geometry" />
        </mxCell>
        <mxCell id="pDNr0wf4y4PxxDpwOzJw-33" style="edgeStyle=orthogonalEdgeStyle;rounded=0;orthogonalLoop=1;jettySize=auto;html=1;entryX=0.5;entryY=0;entryDx=0;entryDy=0;" edge="1" parent="1" source="pDNr0wf4y4PxxDpwOzJw-34" target="pDNr0wf4y4PxxDpwOzJw-36">
          <mxGeometry relative="1" as="geometry" />
        </mxCell>
        <mxCell id="pDNr0wf4y4PxxDpwOzJw-34" value="&lt;font style=&quot;font-size: 18px;&quot;&gt;Начало&lt;/font&gt;" style="ellipse;whiteSpace=wrap;html=1;" vertex="1" parent="1">
          <mxGeometry x="-2105" y="370" width="120" height="80" as="geometry" />
        </mxCell>
        <mxCell id="pDNr0wf4y4PxxDpwOzJw-35" style="edgeStyle=orthogonalEdgeStyle;rounded=0;orthogonalLoop=1;jettySize=auto;html=1;exitX=0.5;exitY=1;exitDx=0;exitDy=0;entryX=0.5;entryY=0;entryDx=0;entryDy=0;" edge="1" parent="1" source="pDNr0wf4y4PxxDpwOzJw-36" target="pDNr0wf4y4PxxDpwOzJw-38">
          <mxGeometry relative="1" as="geometry">
            <mxPoint x="-2066.5" y="570" as="targetPoint" />
          </mxGeometry>
        </mxCell>
        <mxCell id="pDNr0wf4y4PxxDpwOzJw-36" value="&lt;font style=&quot;font-size: 12px;&quot;&gt;Инициализация переменных: SumX, SumXX SumXY SumY SumYY&lt;br&gt;Переменные из аргументов: arrayOfX, arrayOfY n&lt;/font&gt;" style="shape=parallelogram;perimeter=parallelogramPerimeter;whiteSpace=wrap;html=1;fixedSize=1;" vertex="1" parent="1">
          <mxGeometry x="-2340" y="480" width="590" height="60" as="geometry" />
        </mxCell>
        <mxCell id="pDNr0wf4y4PxxDpwOzJw-37" value="" style="edgeStyle=orthogonalEdgeStyle;rounded=0;orthogonalLoop=1;jettySize=auto;html=1;" edge="1" parent="1" source="pDNr0wf4y4PxxDpwOzJw-38" target="pDNr0wf4y4PxxDpwOzJw-39">
          <mxGeometry relative="1" as="geometry" />
        </mxCell>
        <mxCell id="pDNr0wf4y4PxxDpwOzJw-38" value="while i &amp;lt; n; i = 0;&amp;nbsp; i++" style="shape=hexagon;perimeter=hexagonPerimeter2;whiteSpace=wrap;html=1;fixedSize=1;" vertex="1" parent="1">
          <mxGeometry x="-2160" y="570" width="250" height="80" as="geometry" />
        </mxCell>
        <mxCell id="pDNr0wf4y4PxxDpwOzJw-39" value="&lt;pre style=&quot;background-color:#2b2b2b;color:#a9b7c6;font-family:&#39;JetBrains Mono&#39;,monospace;font-size:9,8pt;&quot;&gt;sumX += arrayOfX.get(i)&lt;span style=&quot;color:#cc7832;&quot;&gt;;&lt;br&gt;&lt;/span&gt;sumXX += Math.&lt;span style=&quot;font-style:italic;&quot;&gt;pow&lt;/span&gt;(arrayOfX.get(i)&lt;span style=&quot;color:#cc7832;&quot;&gt;, &lt;/span&gt;&lt;span style=&quot;color:#6897bb;&quot;&gt;2&lt;/span&gt;)&lt;span style=&quot;color:#cc7832;&quot;&gt;;&lt;br&gt;&lt;/span&gt;sumY += arrayOfY.get(i)&lt;span style=&quot;color:#cc7832;&quot;&gt;;&lt;br&gt;&lt;/span&gt;sumXY += arrayOfX.get(i) *arrayOfY.get(i)&lt;span style=&quot;color:#cc7832;&quot;&gt;;&lt;br&gt;&lt;/span&gt;sumYY += arrayOfY.get(i) * arrayOfY.get(i)&lt;span style=&quot;color:#cc7832;&quot;&gt;;&lt;br&gt;&lt;/span&gt;&lt;/pre&gt;" style="shape=parallelogram;perimeter=parallelogramPerimeter;whiteSpace=wrap;html=1;fixedSize=1;" vertex="1" parent="1">
          <mxGeometry x="-2212.25" y="690" width="334.5" height="120" as="geometry" />
        </mxCell>
        <mxCell id="pDNr0wf4y4PxxDpwOzJw-40" value="" style="endArrow=classic;html=1;rounded=0;exitX=1;exitY=0.5;exitDx=0;exitDy=0;entryX=1;entryY=0.5;entryDx=0;entryDy=0;" edge="1" parent="1" source="pDNr0wf4y4PxxDpwOzJw-39" target="pDNr0wf4y4PxxDpwOzJw-38">
          <mxGeometry width="50" height="50" relative="1" as="geometry">
            <mxPoint x="-2000" y="630" as="sourcePoint" />
            <mxPoint x="-1950" y="580" as="targetPoint" />
            <Array as="points">
              <mxPoint x="-1790" y="750" />
              <mxPoint x="-1780" y="610" />
            </Array>
          </mxGeometry>
        </mxCell>
        <mxCell id="pDNr0wf4y4PxxDpwOzJw-41" value="" style="endArrow=classic;html=1;rounded=0;exitX=0;exitY=0.5;exitDx=0;exitDy=0;entryX=0;entryY=0.5;entryDx=0;entryDy=0;" edge="1" parent="1" source="pDNr0wf4y4PxxDpwOzJw-38" target="pDNr0wf4y4PxxDpwOzJw-43">
          <mxGeometry width="50" height="50" relative="1" as="geometry">
            <mxPoint x="-2000" y="630" as="sourcePoint" />
            <mxPoint x="-2170" y="951.777818467882" as="targetPoint" />
            <Array as="points">
              <mxPoint x="-2250" y="610" />
              <mxPoint x="-2250" y="890" />
            </Array>
          </mxGeometry>
        </mxCell>
        <mxCell id="pDNr0wf4y4PxxDpwOzJw-42" value="" style="edgeStyle=orthogonalEdgeStyle;rounded=0;orthogonalLoop=1;jettySize=auto;html=1;" edge="1" parent="1" source="pDNr0wf4y4PxxDpwOzJw-43" target="pDNr0wf4y4PxxDpwOzJw-44">
          <mxGeometry relative="1" as="geometry" />
        </mxCell>
        <mxCell id="pDNr0wf4y4PxxDpwOzJw-43" value="&lt;pre style=&quot;background-color:#2b2b2b;color:#a9b7c6;font-family:&#39;JetBrains Mono&#39;,monospace;font-size:9,8pt;&quot;&gt;&lt;span style=&quot;color:#9876aa;&quot;&gt;a &lt;/span&gt;= (sumXY*n - sumX*sumY)/(sumXX*n - sumX*sumX)&lt;span style=&quot;color:#cc7832;&quot;&gt;;&lt;br&gt;&lt;/span&gt;&lt;span style=&quot;color:#9876aa;&quot;&gt;b &lt;/span&gt;= (sumXX*sumY - sumX*sumXY)/(sumXX*n - sumX*sumX)&lt;span style=&quot;color:#cc7832;&quot;&gt;;&lt;br&gt;&lt;/span&gt;&lt;/pre&gt;" style="shape=parallelogram;perimeter=parallelogramPerimeter;whiteSpace=wrap;html=1;fixedSize=1;" vertex="1" parent="1">
          <mxGeometry x="-2220" y="860" width="390" height="60" as="geometry" />
        </mxCell>
        <mxCell id="pDNr0wf4y4PxxDpwOzJw-44" value="&lt;span style=&quot;font-size: 18px;&quot;&gt;Вызов общего методы для определения спец параметров&lt;/span&gt;" style="ellipse;whiteSpace=wrap;html=1;" vertex="1" parent="1">
          <mxGeometry x="-2117.5" y="960" width="185" height="140" as="geometry" />
        </mxCell>
        <mxCell id="pDNr0wf4y4PxxDpwOzJw-45" value="Линейный метод" style="rounded=0;whiteSpace=wrap;html=1;" vertex="1" parent="1">
          <mxGeometry x="-2112.25" y="290" width="134.5" height="60" as="geometry" />
        </mxCell>
        <mxCell id="pDNr0wf4y4PxxDpwOzJw-46" style="edgeStyle=orthogonalEdgeStyle;rounded=0;orthogonalLoop=1;jettySize=auto;html=1;entryX=0.5;entryY=0;entryDx=0;entryDy=0;" edge="1" parent="1" source="pDNr0wf4y4PxxDpwOzJw-47" target="pDNr0wf4y4PxxDpwOzJw-49">
          <mxGeometry relative="1" as="geometry" />
        </mxCell>
        <mxCell id="pDNr0wf4y4PxxDpwOzJw-47" value="&lt;font style=&quot;font-size: 18px;&quot;&gt;Начало&lt;/font&gt;" style="ellipse;whiteSpace=wrap;html=1;" vertex="1" parent="1">
          <mxGeometry x="585" y="380" width="120" height="80" as="geometry" />
        </mxCell>
        <mxCell id="pDNr0wf4y4PxxDpwOzJw-48" style="edgeStyle=orthogonalEdgeStyle;rounded=0;orthogonalLoop=1;jettySize=auto;html=1;exitX=0.5;exitY=1;exitDx=0;exitDy=0;entryX=0.5;entryY=0;entryDx=0;entryDy=0;" edge="1" parent="1" source="pDNr0wf4y4PxxDpwOzJw-49" target="pDNr0wf4y4PxxDpwOzJw-51">
          <mxGeometry relative="1" as="geometry">
            <mxPoint x="623.4999999999998" y="580" as="targetPoint" />
          </mxGeometry>
        </mxCell>
        <mxCell id="pDNr0wf4y4PxxDpwOzJw-49" value="&lt;font style=&quot;font-size: 12px;&quot;&gt;Инициализация переменных: SumX, SumXX SumXY SumY SumYY&lt;br&gt;Переменные из аргументов: arrayOfX, arrayOfY n&lt;/font&gt;" style="shape=parallelogram;perimeter=parallelogramPerimeter;whiteSpace=wrap;html=1;fixedSize=1;" vertex="1" parent="1">
          <mxGeometry x="350" y="490" width="590" height="60" as="geometry" />
        </mxCell>
        <mxCell id="pDNr0wf4y4PxxDpwOzJw-50" value="" style="edgeStyle=orthogonalEdgeStyle;rounded=0;orthogonalLoop=1;jettySize=auto;html=1;" edge="1" parent="1" source="pDNr0wf4y4PxxDpwOzJw-51" target="pDNr0wf4y4PxxDpwOzJw-52">
          <mxGeometry relative="1" as="geometry" />
        </mxCell>
        <mxCell id="pDNr0wf4y4PxxDpwOzJw-51" value="while i &amp;lt; n; i = 0;&amp;nbsp; i++" style="shape=hexagon;perimeter=hexagonPerimeter2;whiteSpace=wrap;html=1;fixedSize=1;" vertex="1" parent="1">
          <mxGeometry x="530" y="580" width="250" height="80" as="geometry" />
        </mxCell>
        <mxCell id="pDNr0wf4y4PxxDpwOzJw-52" value="&lt;pre style=&quot;background-color:#2b2b2b;color:#a9b7c6;font-family:&#39;JetBrains Mono&#39;,monospace;font-size:9,8pt;&quot;&gt;sumX += arrayOfX.get(i)&lt;span style=&quot;color:#cc7832;&quot;&gt;;&lt;br&gt;&lt;/span&gt;sumXX += Math.&lt;span style=&quot;font-style:italic;&quot;&gt;pow&lt;/span&gt;(arrayOfX.get(i)&lt;span style=&quot;color:#cc7832;&quot;&gt;, &lt;/span&gt;&lt;span style=&quot;color:#6897bb;&quot;&gt;2&lt;/span&gt;)&lt;span style=&quot;color:#cc7832;&quot;&gt;;&lt;br&gt;&lt;/span&gt;sumY += arrayOfY.get(i)&lt;span style=&quot;color:#cc7832;&quot;&gt;;&lt;br&gt;&lt;/span&gt;sumXY += arrayOfX.get(i) *arrayOfY.get(i)&lt;span style=&quot;color:#cc7832;&quot;&gt;;&lt;br&gt;&lt;/span&gt;sumYY += arrayOfY.get(i) * arrayOfY.get(i)&lt;span style=&quot;color:#cc7832;&quot;&gt;;&lt;br&gt;&lt;/span&gt;&lt;/pre&gt;" style="shape=parallelogram;perimeter=parallelogramPerimeter;whiteSpace=wrap;html=1;fixedSize=1;" vertex="1" parent="1">
          <mxGeometry x="477.75" y="700" width="334.5" height="120" as="geometry" />
        </mxCell>
        <mxCell id="pDNr0wf4y4PxxDpwOzJw-53" value="" style="endArrow=classic;html=1;rounded=0;exitX=1;exitY=0.5;exitDx=0;exitDy=0;entryX=1;entryY=0.5;entryDx=0;entryDy=0;" edge="1" parent="1" source="pDNr0wf4y4PxxDpwOzJw-52" target="pDNr0wf4y4PxxDpwOzJw-51">
          <mxGeometry width="50" height="50" relative="1" as="geometry">
            <mxPoint x="690" y="640" as="sourcePoint" />
            <mxPoint x="740" y="590" as="targetPoint" />
            <Array as="points">
              <mxPoint x="900" y="760" />
              <mxPoint x="910" y="620" />
            </Array>
          </mxGeometry>
        </mxCell>
        <mxCell id="pDNr0wf4y4PxxDpwOzJw-54" value="" style="endArrow=classic;html=1;rounded=0;exitX=0;exitY=0.5;exitDx=0;exitDy=0;entryX=0;entryY=0.5;entryDx=0;entryDy=0;" edge="1" parent="1" source="pDNr0wf4y4PxxDpwOzJw-51" target="pDNr0wf4y4PxxDpwOzJw-56">
          <mxGeometry width="50" height="50" relative="1" as="geometry">
            <mxPoint x="690" y="640" as="sourcePoint" />
            <mxPoint x="520" y="961.777818467882" as="targetPoint" />
            <Array as="points">
              <mxPoint x="440" y="620" />
              <mxPoint x="440" y="900" />
            </Array>
          </mxGeometry>
        </mxCell>
        <mxCell id="pDNr0wf4y4PxxDpwOzJw-55" value="" style="edgeStyle=orthogonalEdgeStyle;rounded=0;orthogonalLoop=1;jettySize=auto;html=1;" edge="1" parent="1" source="pDNr0wf4y4PxxDpwOzJw-56" target="pDNr0wf4y4PxxDpwOzJw-57">
          <mxGeometry relative="1" as="geometry" />
        </mxCell>
        <mxCell id="pDNr0wf4y4PxxDpwOzJw-56" value="&lt;pre style=&quot;background-color:#2b2b2b;color:#a9b7c6;font-family:&#39;JetBrains Mono&#39;,monospace;font-size:9,8pt;&quot;&gt;&lt;span style=&quot;color:#9876aa;&quot;&gt;a &lt;/span&gt;= (sumXY*n - sumX*sumY)/(sumXX*n - sumX*sumX)&lt;span style=&quot;color:#cc7832;&quot;&gt;;&lt;br&gt;&lt;/span&gt;&lt;span style=&quot;color:#9876aa;&quot;&gt;b &lt;/span&gt;= (sumXX*sumY - sumX*sumXY)/(sumXX*n - sumX*sumX)&lt;span style=&quot;color:#cc7832;&quot;&gt;;&lt;br&gt;&lt;/span&gt;&lt;/pre&gt;" style="shape=parallelogram;perimeter=parallelogramPerimeter;whiteSpace=wrap;html=1;fixedSize=1;" vertex="1" parent="1">
          <mxGeometry x="470" y="870" width="390" height="60" as="geometry" />
        </mxCell>
        <mxCell id="pDNr0wf4y4PxxDpwOzJw-57" value="&lt;span style=&quot;font-size: 18px;&quot;&gt;Вызов общего методы для определения спец параметров&lt;/span&gt;" style="ellipse;whiteSpace=wrap;html=1;" vertex="1" parent="1">
          <mxGeometry x="572.5" y="970" width="185" height="140" as="geometry" />
        </mxCell>
        <mxCell id="pDNr0wf4y4PxxDpwOzJw-58" value="Линейный метод" style="rounded=0;whiteSpace=wrap;html=1;" vertex="1" parent="1">
          <mxGeometry x="577.75" y="300" width="134.5" height="60" as="geometry" />
        </mxCell>
        <mxCell id="pDNr0wf4y4PxxDpwOzJw-59" style="edgeStyle=orthogonalEdgeStyle;rounded=0;orthogonalLoop=1;jettySize=auto;html=1;entryX=0.5;entryY=0;entryDx=0;entryDy=0;" edge="1" parent="1" source="pDNr0wf4y4PxxDpwOzJw-60" target="pDNr0wf4y4PxxDpwOzJw-62">
          <mxGeometry relative="1" as="geometry" />
        </mxCell>
        <mxCell id="pDNr0wf4y4PxxDpwOzJw-60" value="&lt;font style=&quot;font-size: 18px;&quot;&gt;Начало&lt;/font&gt;" style="ellipse;whiteSpace=wrap;html=1;" vertex="1" parent="1">
          <mxGeometry x="1235" y="380" width="120" height="80" as="geometry" />
        </mxCell>
        <mxCell id="pDNr0wf4y4PxxDpwOzJw-61" style="edgeStyle=orthogonalEdgeStyle;rounded=0;orthogonalLoop=1;jettySize=auto;html=1;exitX=0.5;exitY=1;exitDx=0;exitDy=0;entryX=0.5;entryY=0;entryDx=0;entryDy=0;" edge="1" parent="1" source="pDNr0wf4y4PxxDpwOzJw-62" target="pDNr0wf4y4PxxDpwOzJw-64">
          <mxGeometry relative="1" as="geometry">
            <mxPoint x="1273.4999999999998" y="580" as="targetPoint" />
          </mxGeometry>
        </mxCell>
        <mxCell id="pDNr0wf4y4PxxDpwOzJw-62" value="&lt;font style=&quot;font-size: 12px;&quot;&gt;Инициализация переменных: SumX, SumXX SumXY SumY SumYY&lt;br&gt;Переменные из аргументов: arrayOfX, arrayOfY n&lt;/font&gt;" style="shape=parallelogram;perimeter=parallelogramPerimeter;whiteSpace=wrap;html=1;fixedSize=1;" vertex="1" parent="1">
          <mxGeometry x="1000" y="490" width="590" height="60" as="geometry" />
        </mxCell>
        <mxCell id="pDNr0wf4y4PxxDpwOzJw-63" value="" style="edgeStyle=orthogonalEdgeStyle;rounded=0;orthogonalLoop=1;jettySize=auto;html=1;" edge="1" parent="1" source="pDNr0wf4y4PxxDpwOzJw-64" target="pDNr0wf4y4PxxDpwOzJw-65">
          <mxGeometry relative="1" as="geometry" />
        </mxCell>
        <mxCell id="pDNr0wf4y4PxxDpwOzJw-64" value="while i &amp;lt; n; i = 0;&amp;nbsp; i++" style="shape=hexagon;perimeter=hexagonPerimeter2;whiteSpace=wrap;html=1;fixedSize=1;" vertex="1" parent="1">
          <mxGeometry x="1180" y="580" width="250" height="80" as="geometry" />
        </mxCell>
        <mxCell id="pDNr0wf4y4PxxDpwOzJw-65" value="&lt;pre style=&quot;background-color:#2b2b2b;color:#a9b7c6;font-family:&#39;JetBrains Mono&#39;,monospace;font-size:9,8pt;&quot;&gt;sumX += arrayOfX.get(i)&lt;span style=&quot;color:#cc7832;&quot;&gt;;&lt;br&gt;&lt;/span&gt;sumXX += Math.&lt;span style=&quot;font-style:italic;&quot;&gt;pow&lt;/span&gt;(arrayOfX.get(i)&lt;span style=&quot;color:#cc7832;&quot;&gt;, &lt;/span&gt;&lt;span style=&quot;color:#6897bb;&quot;&gt;2&lt;/span&gt;)&lt;span style=&quot;color:#cc7832;&quot;&gt;;&lt;br&gt;&lt;/span&gt;sumY += arrayOfY.get(i)&lt;span style=&quot;color:#cc7832;&quot;&gt;;&lt;br&gt;&lt;/span&gt;sumXY += arrayOfX.get(i) *arrayOfY.get(i)&lt;span style=&quot;color:#cc7832;&quot;&gt;;&lt;br&gt;&lt;/span&gt;sumYY += arrayOfY.get(i) * arrayOfY.get(i)&lt;span style=&quot;color:#cc7832;&quot;&gt;;&lt;br&gt;&lt;/span&gt;&lt;/pre&gt;" style="shape=parallelogram;perimeter=parallelogramPerimeter;whiteSpace=wrap;html=1;fixedSize=1;" vertex="1" parent="1">
          <mxGeometry x="1127.75" y="700" width="334.5" height="120" as="geometry" />
        </mxCell>
        <mxCell id="pDNr0wf4y4PxxDpwOzJw-66" value="" style="endArrow=classic;html=1;rounded=0;exitX=1;exitY=0.5;exitDx=0;exitDy=0;entryX=1;entryY=0.5;entryDx=0;entryDy=0;" edge="1" parent="1" source="pDNr0wf4y4PxxDpwOzJw-65" target="pDNr0wf4y4PxxDpwOzJw-64">
          <mxGeometry width="50" height="50" relative="1" as="geometry">
            <mxPoint x="1340" y="640" as="sourcePoint" />
            <mxPoint x="1390" y="590" as="targetPoint" />
            <Array as="points">
              <mxPoint x="1550" y="760" />
              <mxPoint x="1560" y="620" />
            </Array>
          </mxGeometry>
        </mxCell>
        <mxCell id="pDNr0wf4y4PxxDpwOzJw-67" value="" style="endArrow=classic;html=1;rounded=0;exitX=0;exitY=0.5;exitDx=0;exitDy=0;entryX=0;entryY=0.5;entryDx=0;entryDy=0;" edge="1" parent="1" source="pDNr0wf4y4PxxDpwOzJw-64" target="pDNr0wf4y4PxxDpwOzJw-69">
          <mxGeometry width="50" height="50" relative="1" as="geometry">
            <mxPoint x="1340" y="640" as="sourcePoint" />
            <mxPoint x="1170" y="961.777818467882" as="targetPoint" />
            <Array as="points">
              <mxPoint x="1090" y="620" />
              <mxPoint x="1090" y="900" />
            </Array>
          </mxGeometry>
        </mxCell>
        <mxCell id="pDNr0wf4y4PxxDpwOzJw-68" value="" style="edgeStyle=orthogonalEdgeStyle;rounded=0;orthogonalLoop=1;jettySize=auto;html=1;" edge="1" parent="1" source="pDNr0wf4y4PxxDpwOzJw-69" target="pDNr0wf4y4PxxDpwOzJw-70">
          <mxGeometry relative="1" as="geometry" />
        </mxCell>
        <mxCell id="pDNr0wf4y4PxxDpwOzJw-69" value="&lt;pre style=&quot;background-color:#2b2b2b;color:#a9b7c6;font-family:&#39;JetBrains Mono&#39;,monospace;font-size:9,8pt;&quot;&gt;&lt;span style=&quot;color:#9876aa;&quot;&gt;a &lt;/span&gt;= (sumXY*n - sumX*sumY)/(sumXX*n - sumX*sumX)&lt;span style=&quot;color:#cc7832;&quot;&gt;;&lt;br&gt;&lt;/span&gt;&lt;span style=&quot;color:#9876aa;&quot;&gt;b &lt;/span&gt;= (sumXX*sumY - sumX*sumXY)/(sumXX*n - sumX*sumX)&lt;span style=&quot;color:#cc7832;&quot;&gt;;&lt;br&gt;&lt;/span&gt;&lt;/pre&gt;" style="shape=parallelogram;perimeter=parallelogramPerimeter;whiteSpace=wrap;html=1;fixedSize=1;" vertex="1" parent="1">
          <mxGeometry x="1120" y="870" width="390" height="60" as="geometry" />
        </mxCell>
        <mxCell id="pDNr0wf4y4PxxDpwOzJw-70" value="&lt;span style=&quot;font-size: 18px;&quot;&gt;Вызов общего методы для определения спец параметров&lt;/span&gt;" style="ellipse;whiteSpace=wrap;html=1;" vertex="1" parent="1">
          <mxGeometry x="1222.5" y="970" width="185" height="140" as="geometry" />
        </mxCell>
        <mxCell id="pDNr0wf4y4PxxDpwOzJw-71" value="Линейный метод" style="rounded=0;whiteSpace=wrap;html=1;" vertex="1" parent="1">
          <mxGeometry x="1227.75" y="300" width="134.5" height="60" as="geometry" />
        </mxCell>
      </root>
    </mxGraphModel>
  </diagram>
</mxfile>
